<svg width="132" height="28" viewBox="0 0 132 28" fill="none" xmlns="http://www.w3.org/2000/svg">
<path d="M42.7905 23.9754C48.0528 23.9754 51.3199 20.4431 51.3199 14.7939V14.7692C51.3199 9.13231 48.0403 5.60001 42.7905 5.60001C37.5532 5.60001 34.2487 9.13231 34.2487 14.7692V14.7939C34.2487 20.4431 37.5282 23.9754 42.7905 23.9754ZM42.7905 21.2185C39.5733 21.2185 37.5282 18.7446 37.5282 14.7939V14.7692C37.5282 10.8185 39.5858 8.35693 42.7905 8.35693C46.0077 8.35693 48.0528 10.8308 48.0528 14.7692V14.7939C48.0528 18.7077 46.0452 21.2185 42.7905 21.2185Z" fill="#1A202C"/>
<path d="M57.1433 23.6677H60.5601L65.2114 10.6215H61.9692L58.9141 20.8246H58.8393L55.7717 10.6215H52.4671L57.1433 23.6677Z" fill="#1A202C"/>
<path d="M71.9825 23.9262C75.4367 23.9262 77.382 21.9077 77.7935 19.9015L77.8309 19.7662H74.9254L74.9004 19.8523C74.6012 20.7262 73.5911 21.5385 72.0448 21.5385C70.0247 21.5385 68.7528 20.1846 68.7029 17.8954H77.9556V16.9108C77.9556 12.9723 75.6112 10.3508 71.8329 10.3508C68.0545 10.3508 65.6229 13.0585 65.6229 17.1692V17.1815C65.6229 21.3292 68.0171 23.9262 71.9825 23.9262ZM71.8703 12.7508C73.5163 12.7508 74.7134 13.7846 74.9379 15.8523H68.7403C68.9897 13.8462 70.2242 12.7508 71.8703 12.7508Z" fill="#1A202C"/>
<path d="M79.9632 23.6677H83.0682V16.0985C83.0682 14.1662 84.1282 13.0708 85.8864 13.0708C86.4101 13.0708 86.884 13.1446 87.1459 13.2431V10.4739C86.9089 10.4123 86.5473 10.3508 86.1607 10.3508C84.6394 10.3508 83.5421 11.2985 83.1306 12.8739H83.0682V10.6215H79.9632V23.6677Z" fill="#1A202C"/>
<path d="M88.742 27.9754H91.847V21.4646H91.9094C92.6576 22.9908 94.1664 23.9262 96.0494 23.9262C99.3663 23.9262 101.486 21.3415 101.486 17.1569V17.1446C101.486 12.9354 99.3663 10.3508 96.0119 10.3508C94.1165 10.3508 92.67 11.3108 91.9094 12.8739H91.847V10.6215H88.742V27.9754ZM95.0892 21.3415C93.1688 21.3415 91.8221 19.7046 91.8221 17.1569V17.1446C91.8221 14.5846 93.1688 12.9354 95.0892 12.9354C97.0719 12.9354 98.3189 14.5354 98.3189 17.1446V17.1569C98.3189 19.7292 97.0719 21.3415 95.0892 21.3415Z" fill="#1A202C"/>
<path d="M107.384 23.8892C109.13 23.8892 110.602 23.0277 111.362 21.6615H111.437V23.6677H114.542V14.6954C114.542 12.0739 112.41 10.3508 109.105 10.3508C105.751 10.3508 103.718 12.0862 103.531 14.4L103.519 14.5477H106.399L106.424 14.4369C106.624 13.4769 107.522 12.8 108.993 12.8C110.564 12.8 111.437 13.6 111.437 14.9169V15.8154L107.983 16.0246C104.778 16.2215 102.958 17.6123 102.958 19.9262V19.9508C102.958 22.2769 104.741 23.8892 107.384 23.8892ZM106.05 19.8277V19.8154C106.05 18.7815 106.886 18.1292 108.419 18.0308L111.437 17.8462V18.8308C111.437 20.3815 110.09 21.5508 108.307 21.5508C106.948 21.5508 106.05 20.8985 106.05 19.8277Z" fill="#1A202C"/>
<path d="M118.769 28C121.525 28 123.072 26.9785 124.082 24.1108L128.833 10.6215H125.566L122.461 21.0585H122.373L119.281 10.6215H115.889L120.64 23.68L120.453 24.2092C120.054 25.3046 119.393 25.6369 118.208 25.6369C117.772 25.6369 117.41 25.5754 117.173 25.5262V27.8646C117.547 27.9262 118.171 28 118.769 28Z" fill="#1A202C"/>
<path d="M130.204 23.8646C131.214 23.8646 132 23.0769 132 22.08C132 21.0954 131.214 20.3077 130.204 20.3077C129.194 20.3077 128.396 21.0954 128.396 22.08C128.396 23.0769 129.194 23.8646 130.204 23.8646Z" fill="#1A202C"/>
<path d="M21.2865 22.96C19.2411 24.71 16.5417 25.7483 13.5806 25.6667C7.43246 25.5033 2.64001 20.3117 2.64001 14.28V6.07835C2.64001 5.55335 3.28218 5.29668 3.65083 5.67001L21.2865 22.96Z" fill="#194BFB"/>
<path d="M7.39673 5.01667C9.43024 3.27833 12.1059 2.25166 15.0432 2.33333C21.1437 2.49666 25.8886 7.64165 25.8886 13.6267V21.7467C25.8886 22.2717 25.2465 22.5283 24.8778 22.155L7.39673 5.01667Z" fill="#194BFB"/>
</svg>
