<svg width="48" height="48" viewBox="0 0 48 48" fill="none" xmlns="http://www.w3.org/2000/svg">
<rect width="48" height="48" rx="24" fill="#F7FAFC"/>
<path d="M24 23C26.2091 23 28 21.2091 28 19C28 16.7909 26.2091 15 24 15C21.7909 15 20 16.7909 20 19C20 21.2091 21.7909 23 24 23Z" stroke="#1A202C" stroke-width="1.5" stroke-linecap="round" stroke-linejoin="round"/>
<path d="M18 33V31C18 29.9391 18.4214 28.9217 19.1716 28.1716C19.9217 27.4214 20.9391 27 22 27H26C27.0609 27 28.0783 27.4214 28.8284 28.1716C29.5786 28.9217 30 29.9391 30 31V33" stroke="#1A202C" stroke-width="1.5" stroke-linecap="round" stroke-linejoin="round"/>
</svg>
