<svg width="20" height="20" viewBox="0 0 20 20" fill="none" xmlns="http://www.w3.org/2000/svg">
<g id="archive">
<g id="Group">
<path id="Vector" d="M15.8333 3.33325H4.16667C3.24619 3.33325 2.5 4.07944 2.5 4.99992C2.5 5.92039 3.24619 6.66659 4.16667 6.66659H15.8333C16.7538 6.66659 17.5 5.92039 17.5 4.99992C17.5 4.07944 16.7538 3.33325 15.8333 3.33325Z" stroke="#718096" stroke-width="1.5" stroke-linecap="round" stroke-linejoin="round"/>
<path id="Vector_2" d="M4.16669 6.6665V14.9998C4.16669 15.4419 4.34228 15.8658 4.65484 16.1783C4.9674 16.4909 5.39133 16.6665 5.83335 16.6665H14.1667C14.6087 16.6665 15.0326 16.4909 15.3452 16.1783C15.6578 15.8658 15.8334 15.4419 15.8334 14.9998V6.6665" stroke="#718096" stroke-width="1.5" stroke-linecap="round" stroke-linejoin="round"/>
<path id="Vector_3" d="M8.33331 10H11.6666" stroke="#718096" stroke-width="1.5" stroke-linecap="round" stroke-linejoin="round"/>
</g>
</g>
</svg>
