<svg width="20" height="20" viewBox="0 0 20 20" fill="none" xmlns="http://www.w3.org/2000/svg">
<g id="copy">
<g id="Group">
<path id="Vector" d="M15 6.6665H8.33329C7.41282 6.6665 6.66663 7.4127 6.66663 8.33317V14.9998C6.66663 15.9203 7.41282 16.6665 8.33329 16.6665H15C15.9204 16.6665 16.6666 15.9203 16.6666 14.9998V8.33317C16.6666 7.4127 15.9204 6.6665 15 6.6665Z" stroke="#718096" stroke-width="1.5" stroke-linecap="round" stroke-linejoin="round"/>
<path id="Vector_2" d="M13.3333 6.66659V4.99992C13.3333 4.55789 13.1577 4.13397 12.8452 3.82141C12.5326 3.50885 12.1087 3.33325 11.6666 3.33325H4.99998C4.55795 3.33325 4.13403 3.50885 3.82147 3.82141C3.50891 4.13397 3.33331 4.55789 3.33331 4.99992V11.6666C3.33331 12.1086 3.50891 12.5325 3.82147 12.8451C4.13403 13.1577 4.55795 13.3333 4.99998 13.3333H6.66665" stroke="#718096" stroke-width="1.5" stroke-linecap="round" stroke-linejoin="round"/>
</g>
</g>
</svg>
