<svg width="20" height="20" viewBox="0 0 20 20" fill="none" xmlns="http://www.w3.org/2000/svg">
<path d="M17.0833 9.41662V5.86663C17.0833 2.5083 16.3 1.66663 13.15 1.66663H6.84999C3.69999 1.66663 2.91666 2.5083 2.91666 5.86663V15.2499C2.91666 17.4666 4.13333 17.9916 5.60833 16.4083L5.61665 16.4C6.29998 15.675 7.34165 15.7333 7.93331 16.5249L8.77499 17.65" stroke="white" stroke-width="1.5" stroke-linecap="round" stroke-linejoin="round"/>
<path d="M6.66666 5.83337H13.3333" stroke="white" stroke-width="1.5" stroke-linecap="round" stroke-linejoin="round"/>
<path d="M7.5 9.16663H12.5" stroke="white" stroke-width="1.5" stroke-linecap="round" stroke-linejoin="round"/>
<path d="M15.1758 12.3086L12.2259 15.2586C12.1092 15.3752 12.0009 15.5919 11.9759 15.7502L11.8175 16.8752C11.7592 17.2836 12.0425 17.5669 12.4509 17.5086L13.5759 17.3502C13.7342 17.3252 13.9592 17.2169 14.0675 17.1002L17.0175 14.1502C17.5259 13.6419 17.7675 13.0502 17.0175 12.3002C16.2759 11.5586 15.6842 11.8002 15.1758 12.3086Z" stroke="white" stroke-width="1.5" stroke-miterlimit="10" stroke-linecap="round" stroke-linejoin="round"/>
<path d="M14.7494 12.7335C14.9994 13.6335 15.6994 14.3335 16.5994 14.5835" stroke="white" stroke-width="1.5" stroke-miterlimit="10" stroke-linecap="round" stroke-linejoin="round"/>
</svg>
