<svg width="16" height="4" viewBox="0 0 16 4" fill="none" xmlns="http://www.w3.org/2000/svg">
<path d="M8.83329 2.00016C8.83329 1.53993 8.4602 1.16683 7.99996 1.16683C7.53972 1.16683 7.16663 1.53993 7.16663 2.00016C7.16663 2.4604 7.53972 2.8335 7.99996 2.8335C8.4602 2.8335 8.83329 2.4604 8.83329 2.00016Z" stroke="#718096" stroke-width="2" stroke-linecap="round" stroke-linejoin="round"/>
<path d="M14.6667 2.00016C14.6667 1.53993 14.2936 1.16683 13.8333 1.16683C13.3731 1.16683 13 1.53993 13 2.00016C13 2.4604 13.3731 2.8335 13.8333 2.8335C14.2936 2.8335 14.6667 2.4604 14.6667 2.00016Z" stroke="#718096" stroke-width="2" stroke-linecap="round" stroke-linejoin="round"/>
<path d="M2.99998 2.00016C2.99998 1.53993 2.62688 1.16683 2.16665 1.16683C1.70641 1.16683 1.33331 1.53993 1.33331 2.00016C1.33331 2.4604 1.70641 2.8335 2.16665 2.8335C2.62688 2.8335 2.99998 2.4604 2.99998 2.00016Z" stroke="#718096" stroke-width="2" stroke-linecap="round" stroke-linejoin="round"/>
</svg>
