<svg width="14" height="18" viewBox="0 0 14 18" fill="none" xmlns="http://www.w3.org/2000/svg">
<path d="M8.41675 1.5V4.83333C8.41675 5.05435 8.50455 5.26631 8.66083 5.42259C8.81711 5.57887 9.02907 5.66667 9.25008 5.66667H12.5834" stroke="#194BFB" stroke-width="1.5" stroke-linecap="round" stroke-linejoin="round"/>
<path d="M10.9167 16.5H2.58341C2.14139 16.5 1.71746 16.3244 1.4049 16.0118C1.09234 15.6993 0.916748 15.2754 0.916748 14.8333V3.16667C0.916748 2.72464 1.09234 2.30072 1.4049 1.98816C1.71746 1.67559 2.14139 1.5 2.58341 1.5H8.41675L12.5834 5.66667V14.8333C12.5834 15.2754 12.4078 15.6993 12.0953 16.0118C11.7827 16.3244 11.3588 16.5 10.9167 16.5Z" stroke="#194BFB" stroke-width="1.5" stroke-linecap="round" stroke-linejoin="round"/>
<path d="M6.75 8.16675V13.1667" stroke="#194BFB" stroke-width="1.5" stroke-linecap="round" stroke-linejoin="round"/>
<path d="M4.25 10.6667L6.75 13.1667L9.25 10.6667" stroke="#194BFB" stroke-width="1.5" stroke-linecap="round" stroke-linejoin="round"/>
</svg>
