<svg width="16" height="19" viewBox="0 0 16 19" fill="none" xmlns="http://www.w3.org/2000/svg">
<path d="M5.24998 11.3333L10.75 5.83333L5.24998 11.3333ZM5.70831 6.29167H5.71748H5.70831ZM10.2916 10.875H10.3008H10.2916ZM14.4166 17.75V3.08333C14.4166 2.5971 14.2235 2.13079 13.8797 1.78697C13.5359 1.44315 13.0695 1.25 12.5833 1.25H3.41665C2.93042 1.25 2.4641 1.44315 2.12028 1.78697C1.77647 2.13079 1.58331 2.5971 1.58331 3.08333V17.75L4.79165 15.9167L7.99998 17.75L11.2083 15.9167L14.4166 17.75ZM6.16665 6.29167C6.16665 6.41322 6.11836 6.5298 6.0324 6.61576C5.94645 6.70171 5.82987 6.75 5.70831 6.75C5.58675 6.75 5.47018 6.70171 5.38422 6.61576C5.29827 6.5298 5.24998 6.41322 5.24998 6.29167C5.24998 6.17011 5.29827 6.05353 5.38422 5.96758C5.47018 5.88162 5.58675 5.83333 5.70831 5.83333C5.82987 5.83333 5.94645 5.88162 6.0324 5.96758C6.11836 6.05353 6.16665 6.17011 6.16665 6.29167ZM10.75 10.875C10.75 10.9966 10.7017 11.1131 10.6157 11.1991C10.5298 11.285 10.4132 11.3333 10.2916 11.3333C10.1701 11.3333 10.0535 11.285 9.96755 11.1991C9.8816 11.1131 9.83331 10.9966 9.83331 10.875C9.83331 10.7534 9.8816 10.6369 9.96755 10.5509C10.0535 10.465 10.1701 10.4167 10.2916 10.4167C10.4132 10.4167 10.5298 10.465 10.6157 10.5509C10.7017 10.6369 10.75 10.7534 10.75 10.875Z"  stroke-width="1.5" stroke-linecap="round" stroke-linejoin="round"/>
</svg>
