<svg width="16" height="18" viewBox="0 0 16 18" fill="none" xmlns="http://www.w3.org/2000/svg">
<path d="M8 10.6667C9.38071 10.6667 10.5 9.54746 10.5 8.16675C10.5 6.78604 9.38071 5.66675 8 5.66675C6.61929 5.66675 5.5 6.78604 5.5 8.16675C5.5 9.54746 6.61929 10.6667 8 10.6667Z" stroke="#718096" stroke-width="1.5" stroke-linecap="round" stroke-linejoin="round"/>
<path d="M12.7142 12.8808L9.17838 16.4167C8.86586 16.7289 8.4422 16.9042 8.00046 16.9042C7.55872 16.9042 7.13506 16.7289 6.82254 16.4167L3.28588 12.8808C2.35356 11.9485 1.71866 10.7606 1.46145 9.46739C1.20424 8.17419 1.33629 6.83376 1.84088 5.61561C2.34547 4.39745 3.19996 3.35628 4.29628 2.62376C5.3926 1.89123 6.68152 1.50024 8.00004 1.50024C9.31857 1.50024 10.6075 1.89123 11.7038 2.62376C12.8001 3.35628 13.6546 4.39745 14.1592 5.61561C14.6638 6.83376 14.7958 8.17419 14.5386 9.46739C14.2814 10.7606 13.6465 11.9485 12.7142 12.8808V12.8808Z" stroke="#718096" stroke-width="1.5" stroke-linecap="round" stroke-linejoin="round"/>
</svg>
