<svg width="48" height="48" viewBox="0 0 48 48" fill="none" xmlns="http://www.w3.org/2000/svg">
<rect y="0.000732422" width="48" height="48" rx="24" fill="#F7FAFC"/>
<path d="M31.5 17.8683C31.3483 17.8683 30.8717 17.9008 30.8717 18.3558C30.8717 18.67 31.11 18.8542 31.5 18.8542C31.89 18.8542 32.1283 18.67 32.1283 18.3558C32.1283 17.9983 31.8033 17.8683 31.5 17.8683Z" fill="#1A202C"/>
<path d="M31.5 16.9692C31.7925 16.9692 31.9767 16.8067 31.9767 16.5575C31.9767 16.2542 31.7275 16.1567 31.5 16.1567C31.2725 16.1567 31.0233 16.265 31.0233 16.5575C31.0233 16.8067 31.2075 16.9692 31.5 16.9692Z" fill="#1A202C"/>
<path d="M31.5 13.1667C29.225 13.1667 27.3725 14.9108 27.1883 17.1317C27.1667 17.2508 27.1667 17.3808 27.1667 17.5C27.1667 19.8942 29.1058 21.8333 31.5 21.8333C31.8792 21.8333 32.2367 21.79 32.5833 21.6925C34.4575 21.2158 35.8333 19.515 35.8333 17.5C35.8333 15.1058 33.8942 13.1667 31.5 13.1667ZM31.5 19.8833C30.4275 19.8833 29.7666 19.3417 29.7666 18.4642C29.7666 18.0417 29.9616 17.6625 30.3083 17.4025C30.0483 17.175 29.9075 16.8608 29.9075 16.5033C29.9075 15.6691 30.5467 15.1166 31.4892 15.1166C32.4317 15.1166 33.0708 15.68 33.0708 16.5033C33.0708 16.8608 32.9408 17.175 32.67 17.4025C33.0275 17.6517 33.2225 18.0308 33.2225 18.4642C33.2333 19.3417 32.5725 19.8833 31.5 19.8833Z" fill="#1A202C"/>
<path d="M31.5 23.4583C30.2542 23.4583 29.095 23.0792 28.1417 22.4183C28.0658 22.3642 27.9683 22.4183 27.9683 22.505L27.9792 27.7267C27.9792 28.1817 27.6108 28.5392 27.1667 28.5392C26.7225 28.5392 26.3542 28.1817 26.3542 27.7267V22.375C26.3542 22.0175 26.5925 21.7142 26.9175 21.6058C27.0042 21.5733 27.0583 21.4542 26.9933 21.3892C26.0942 20.3492 25.5417 18.995 25.5417 17.5108C25.5417 17.3267 25.5525 17.1317 25.5742 16.9475C25.5742 16.9042 25.585 16.8717 25.585 16.8283C25.6175 16.5792 25.4875 16.3408 25.2708 16.2325L24.2958 15.7667C23.7108 15.4958 23.0392 15.4958 22.4542 15.7667L15.4125 19.0817C14.6541 19.4392 14.1667 20.1975 14.1667 21.0425V29.1242C14.1667 29.9692 14.6541 30.7275 15.4125 31.085L22.4542 34.4C23.0392 34.6708 23.7108 34.6708 24.2958 34.4L31.3375 31.085C32.0958 30.7275 32.5833 29.9692 32.5833 29.1242V24.0217C32.5833 23.6858 32.2691 23.4258 31.9333 23.4475C31.7925 23.4583 31.6517 23.4583 31.5 23.4583ZM24.7292 25.625C24.7292 27.2717 23.3967 28.6042 21.75 28.6042C20.1033 28.6042 18.7708 27.2717 18.7708 25.625V22.375C18.7708 21.9308 19.1392 21.5625 19.5833 21.5625C20.0275 21.5625 20.3958 21.9308 20.3958 22.375V25.625C20.3958 26.3725 21.0025 26.9792 21.75 26.9792C22.4975 26.9792 23.1042 26.3725 23.1042 25.625V22.375C23.1042 21.9308 23.4725 21.5625 23.9167 21.5625C24.3608 21.5625 24.7292 21.9308 24.7292 22.375V25.625Z" fill="#1A202C"/>
</svg>
